<svg width="109" height="20" viewBox="0 0 109 20" fill="none" xmlns="http://www.w3.org/2000/svg">
<path d="M7.2835 0.757C7.79761 0.757 8.2602 0.857136 8.67148 1.0574C9.09741 1.24098 9.48663 1.44959 9.83912 1.68323C10.2063 1.91687 10.5514 2.13382 10.8745 2.33409C11.1976 2.51767 11.5281 2.60945 11.8659 2.60945C12.1303 2.59277 12.4314 2.55104 12.7692 2.48429C13.0629 2.41753 13.4008 2.3174 13.7826 2.18389C14.1791 2.03369 14.6198 1.81674 15.1044 1.53303C14.6198 2.06707 14.2232 2.51767 13.9148 2.88482C13.621 3.23528 13.3934 3.52734 13.2318 3.76098C13.0409 4.028 12.9014 4.23661 12.8133 4.38681C12.7251 4.57038 12.5929 4.84575 12.4167 5.21289C12.2551 5.54667 12.0348 5.99727 11.7558 6.56469C11.4767 7.11542 11.1242 7.84141 10.6983 8.74259C10.6983 7.59105 10.5955 6.6982 10.3899 6.06403C10.1989 5.42985 9.98594 4.94588 9.75095 4.6121C9.4719 4.22826 9.15613 3.98628 8.80364 3.88614C8.48054 3.83608 8.15743 3.90283 7.83427 4.08641C7.51117 4.2533 7.18806 4.50363 6.86496 4.8374C6.55652 5.17118 6.25542 5.57171 5.96169 6.03899C5.68263 6.48959 5.4256 6.96522 5.19061 7.46587C4.9703 7.96652 4.78671 8.47557 4.63984 8.99287C4.49297 9.49359 4.39751 9.96084 4.35344 10.3948C4.30938 10.7786 4.30204 11.2292 4.33141 11.7465C4.36078 12.2472 4.42688 12.7645 4.52969 13.2986C4.6325 13.816 4.76468 14.3249 4.92624 14.8256C5.0878 15.3263 5.28607 15.7769 5.52107 16.1774C5.77075 16.5612 6.04981 16.8784 6.35825 17.1287C6.66669 17.3623 7.01918 17.4708 7.41573 17.4541C7.85633 17.4207 8.28959 17.2705 8.71553 17.0035C9.08269 16.7865 9.45724 16.4528 9.83912 16.0022C10.2209 15.5349 10.5514 14.8757 10.8305 14.0245L14.091 14.7005C13.151 16.0022 12.2331 16.9785 11.3372 17.6293C10.4559 18.2802 9.66284 18.7391 8.95786 19.0061C8.13537 19.3065 7.35695 19.4484 6.62264 19.4317C5.69731 19.3149 4.83077 18.9978 4.02298 18.4805C3.21519 17.9631 2.51755 17.3373 1.93006 16.6029C1.35726 15.852 0.909302 15.0342 0.586184 14.1497C0.263066 13.2652 0.123537 12.3974 0.167599 11.5463C0.196973 10.9789 0.299783 10.3196 0.476029 9.56864C0.652274 8.80097 0.887269 8.01658 1.18101 7.21552C1.48944 6.41448 1.85662 5.63012 2.28255 4.86244C2.70848 4.09475 3.17847 3.41051 3.69252 2.80971C4.20657 2.19224 4.76468 1.69992 5.36686 1.33276C5.98371 0.94892 6.62264 0.757 7.2835 0.757ZM14.6247 8.06671L18.6783 8.11676C18.4433 9.13479 18.2671 10.0026 18.1496 10.7202C18.0468 11.4378 17.9807 12.0386 17.9513 12.5226C17.8925 13.0733 17.8779 13.5406 17.9073 13.9244C17.9513 14.2749 18.0248 14.6503 18.1275 15.051C18.2157 15.3847 18.3479 15.7686 18.5241 16.2024C18.7004 16.6363 18.9354 17.0703 19.2291 17.5042C19.0529 17.4374 18.8619 17.3873 18.6563 17.3539C18.4507 17.3206 18.2598 17.2956 18.0835 17.2789C17.8779 17.2622 17.6723 17.2622 17.4666 17.2789C17.261 17.2956 17.0333 17.3206 16.7837 17.3539C16.5781 17.3873 16.3284 17.4291 16.0346 17.4791C15.7409 17.5292 15.4324 17.596 15.1093 17.6794C15.3297 16.9284 15.4985 16.2775 15.616 15.7268C15.7483 15.1761 15.8437 14.7171 15.9024 14.35C15.9612 13.9161 15.9979 13.5656 16.0126 13.2986C16.0126 12.9648 16.0126 12.5893 16.0126 12.1721C16.0126 11.7382 16.0126 11.321 16.0126 10.9205C16.0126 10.5199 16.0053 10.1695 15.9906 9.86905C15.9759 9.55198 15.9465 9.35168 15.9024 9.2683L15.6822 9.01794C15.594 8.93448 15.4618 8.81764 15.2856 8.66746C15.1241 8.50056 14.9037 8.30033 14.6247 8.06671ZM16.1889 4.21157C16.4973 4.028 16.8057 3.97793 17.1141 4.06138C17.4373 4.14482 17.6869 4.30336 17.8632 4.537C18.0394 4.77065 18.0982 5.04601 18.0394 5.3631C17.9954 5.68018 17.7604 5.98893 17.3344 6.28932C16.9085 6.57303 16.534 6.67316 16.2109 6.58972C15.8878 6.50628 15.6601 6.33105 15.5279 6.06403C15.3958 5.79701 15.3737 5.48826 15.4618 5.1378C15.55 4.77065 15.7923 4.46191 16.1889 4.21157ZM21.0185 16.5028C21.1213 15.9521 21.1947 15.4681 21.2388 15.051C21.2975 14.617 21.3416 14.2582 21.371 13.9745C21.4004 13.6407 21.415 13.357 21.415 13.1234C21.4004 12.8397 21.3856 12.5059 21.371 12.1221C21.371 11.7215 21.3563 11.3293 21.3269 10.9455C21.3122 10.5449 21.2902 10.1945 21.2608 9.89412C21.2315 9.57697 21.1947 9.35168 21.1506 9.21817C21.0919 9.08466 21.0111 8.94282 20.9083 8.79264C20.7027 8.50889 20.4016 8.23354 20.0051 7.96652C20.3429 7.88307 20.6293 7.81635 20.8643 7.76629C21.114 7.6995 21.3196 7.64111 21.4811 7.59105C21.6573 7.52426 21.8116 7.46587 21.9438 7.41582C22.0613 7.36576 22.2008 7.3157 22.3623 7.26565C22.4946 7.23225 22.6561 7.19052 22.847 7.14045C23.038 7.09038 23.2583 7.03197 23.508 6.96522L23.4419 9.24323C23.9119 8.60908 24.3892 8.13342 24.8739 7.81635C25.3585 7.49927 25.8139 7.27398 26.2397 7.14045C26.7245 6.97356 27.2018 6.89011 27.6718 6.89011C28.2593 6.9235 28.8027 7.03197 29.3021 7.21552C29.8161 7.39916 30.2567 7.61605 30.6239 7.8664C31.0057 8.10003 31.3142 8.35039 31.5492 8.61741C31.7842 8.88443 31.9237 9.11805 31.9678 9.31835C32.144 9.96917 32.188 10.57 32.0999 11.1207C32.0118 11.6547 31.8943 12.1805 31.7474 12.6978C31.6153 13.1985 31.4978 13.6991 31.395 14.1998C31.3069 14.7005 31.3436 15.2428 31.5051 15.8269C31.5638 15.9771 31.6226 16.1274 31.6813 16.2775C31.7401 16.411 31.8136 16.5446 31.9017 16.6781C31.9898 16.8116 32.0926 16.9201 32.2101 17.0035C32.0486 16.9868 31.887 16.9785 31.7254 16.9785C31.5638 16.9617 31.417 16.9451 31.2848 16.9284C31.1232 16.9117 30.9764 16.895 30.8442 16.8784C30.6973 16.8616 30.499 16.8533 30.2494 16.8533C29.8234 16.8533 29.1625 16.8784 28.2666 16.9284C28.3988 16.5779 28.5016 16.2859 28.575 16.0522C28.6631 15.8019 28.7366 15.6017 28.7954 15.4514C28.8541 15.2678 28.8981 15.126 28.9275 15.0259C29.1038 14.5419 29.2066 13.9912 29.236 13.3737C29.28 12.7562 29.2433 12.1304 29.1258 11.4962C29.0817 11.2793 29.0083 11.0206 28.9055 10.7202C28.8027 10.4198 28.6631 10.1277 28.4869 9.84399C28.3254 9.56031 28.1271 9.31835 27.8921 9.11805C27.6718 8.91782 27.4147 8.80097 27.121 8.76758C26.8272 8.73425 26.4968 8.81764 26.1296 9.01794C25.7771 9.21817 25.3953 9.58537 24.984 10.1194C24.6756 10.57 24.4332 11.1207 24.257 11.7716C24.0955 12.3223 23.9853 13.0149 23.9265 13.8493C23.8678 14.6671 23.9559 15.6266 24.1909 16.7281C23.9853 16.6947 23.7944 16.6781 23.6181 16.6781C23.4419 16.6614 23.295 16.6447 23.1775 16.628C23.0306 16.6113 22.8984 16.5946 22.7809 16.5779C22.6488 16.5779 22.5019 16.5696 22.3403 16.5529C22.1934 16.5529 22.0098 16.5529 21.7896 16.5529C21.5692 16.5362 21.3122 16.5195 21.0185 16.5028ZM39.5953 15.2261C40.0065 15.2261 40.3884 15.1761 40.7409 15.0759C41.0346 14.9925 41.3137 14.859 41.5781 14.6754C41.8571 14.4752 42.0407 14.1831 42.1288 13.7992C42.4226 13.866 42.6723 13.9244 42.8779 13.9745C43.0835 14.0079 43.2597 14.0413 43.4066 14.0747C43.5682 14.1247 43.7077 14.158 43.8252 14.1748C43.9427 14.2082 44.0822 14.2415 44.2438 14.2749C44.3907 14.3083 44.5669 14.35 44.7725 14.4001C44.9928 14.4335 45.2499 14.4835 45.5436 14.5502C45.3233 14.5169 45.0956 14.5419 44.8607 14.6254C44.6403 14.7088 44.4274 14.8006 44.2218 14.9007C43.9868 15.0176 43.7665 15.1594 43.5609 15.3263C43.4286 15.4264 43.2744 15.5766 43.0982 15.7769C42.9366 15.9771 42.7016 16.1691 42.3932 16.3527C42.0848 16.5362 41.6735 16.6947 41.1595 16.8282C40.6601 16.9451 40.0139 16.9868 39.2208 16.9534C38.2661 16.9201 37.4657 16.7281 36.8195 16.3776C36.1732 16.0105 35.6518 15.5683 35.2553 15.051C34.8587 14.5169 34.5723 13.9411 34.3961 13.3237C34.2198 12.7062 34.1243 12.1304 34.1096 11.5964C34.095 11.0623 34.2345 10.5032 34.5282 9.91911C34.822 9.33501 35.2332 8.80097 35.762 8.31699C36.3053 7.83301 36.9589 7.44081 37.7227 7.14045C38.4864 6.82336 39.3236 6.66482 40.2342 6.66482C40.7629 6.66482 41.2476 6.73992 41.6882 6.89011C42.1435 7.02362 42.5548 7.20719 42.9219 7.44081C43.3038 7.67451 43.6343 7.94153 43.9133 8.24187C44.1924 8.52562 44.4274 8.81764 44.6183 9.11805C44.8093 9.43513 44.9708 9.76894 45.103 10.1194C45.2205 10.4198 45.316 10.7619 45.3894 11.1458C45.4628 11.5296 45.4849 11.9218 45.4555 12.3223C44.3393 12.3557 43.436 12.3808 42.7457 12.3974C42.0701 12.4141 41.5413 12.4224 41.1595 12.4224H40.1681H39.4191C39.1547 12.4224 38.8095 12.4308 38.3836 12.4475C37.9577 12.4641 37.4363 12.4892 36.8195 12.5226C36.8928 13.1901 37.0764 13.7074 37.3702 14.0747C37.6786 14.4251 38.0018 14.6921 38.3395 14.8757C38.7214 15.0759 39.14 15.1928 39.5953 15.2261ZM37.6125 10.7202C38.0825 10.7536 38.4717 10.7786 38.7802 10.7953C39.1033 10.812 39.3677 10.8287 39.5733 10.8454C39.7935 10.862 39.9698 10.8704 40.102 10.8704H40.6527C41.02 10.8704 41.7029 10.8454 42.7016 10.7953C42.6576 10.061 42.518 9.50192 42.283 9.11805C42.0627 8.73425 41.8277 8.4505 41.5781 8.26693C41.2843 8.0667 40.9612 7.94986 40.6087 7.91646C39.654 7.93319 38.9417 8.15849 38.4717 8.59234C38.0164 9.02627 37.73 9.73554 37.6125 10.7202ZM54.5811 0.381505C55.3742 0.414882 56.1747 0.58177 56.9824 0.882165C57.8049 1.16588 58.5613 1.63316 59.2516 2.28402C59.9419 2.9182 60.5294 3.74429 61.0141 4.7623C61.4988 5.76363 61.7998 6.99025 61.9173 8.44217C62.0202 9.6271 61.888 10.8036 61.5208 11.9718C61.1683 13.1234 60.6763 14.1831 60.0448 15.1511C59.4132 16.119 58.6862 16.9451 57.8637 17.6293C57.0412 18.2968 56.2187 18.7391 55.3962 18.9561C54.8969 19.0896 54.3461 19.1063 53.744 19.0061C53.1565 18.8893 52.5543 18.6807 51.9374 18.3803C51.3352 18.0632 50.7404 17.6627 50.1529 17.1787C49.5801 16.6947 49.0587 16.144 48.5887 15.5265C48.1187 14.8924 47.7222 14.2082 47.3991 13.4738C47.0907 12.7396 46.8997 11.9718 46.8263 11.1708C46.7528 10.5032 46.7455 9.76894 46.8043 8.96788C46.8777 8.15009 47.0172 7.3407 47.2228 6.53965C47.4432 5.72191 47.7443 4.93753 48.1261 4.18654C48.5226 3.41886 49.022 2.75131 49.6242 2.18389C50.2264 1.59978 50.9314 1.14919 51.7392 0.832101C52.5616 0.498326 53.509 0.348127 54.5811 0.381505ZM50.6376 10.5199C50.432 12.3056 50.5789 13.7408 51.0782 14.8256C51.5923 15.9104 52.3633 16.5696 53.3915 16.8032C53.8908 16.9201 54.3682 16.8032 54.8234 16.4528C55.2934 16.0856 55.7194 15.5599 56.1012 14.8757C56.4831 14.1914 56.8135 13.3904 57.0926 12.4725C57.3716 11.5546 57.5773 10.595 57.7095 9.5937C57.8416 8.59234 57.849 7.69117 57.7315 6.89011C57.6287 6.07237 57.4451 5.37979 57.1807 4.81237C56.9164 4.22826 56.5932 3.77767 56.2114 3.46058C55.8442 3.14349 55.4624 2.96826 55.0658 2.93488C54.3755 2.88482 53.7733 3.09343 53.2592 3.56071C52.7452 4.01131 52.3119 4.60375 51.9594 5.33806C51.6069 6.07237 51.3206 6.89846 51.1002 7.81635C50.8946 8.73426 50.7404 9.63543 50.6376 10.5199ZM63.729 16.5028C63.8318 15.9521 63.9051 15.4681 63.949 15.051C64.0079 14.617 64.0518 14.2582 64.0812 13.9745C64.1107 13.6407 64.1251 13.357 64.1251 13.1234C64.1107 12.8397 64.0956 12.5059 64.0812 12.1221C64.0812 11.7215 64.0668 11.3293 64.0373 10.9455C64.0223 10.5449 64.0004 10.1945 63.9709 9.89412C63.9415 9.57697 63.9051 9.35168 63.8613 9.21817C63.8024 9.08466 63.7215 8.94282 63.6187 8.79264C63.4132 8.50889 63.1118 8.23354 62.7151 7.96652C63.0529 7.88307 63.3393 7.81635 63.5743 7.76629C63.8243 7.6995 64.0298 7.64111 64.1915 7.59105C64.3676 7.52426 64.5218 7.46587 64.654 7.41582C64.7718 7.36576 64.9109 7.3157 65.0726 7.26565C65.2048 7.23225 65.3665 7.19052 65.5576 7.14045C65.7481 7.09038 65.9687 7.03197 66.2181 6.96522L66.1523 9.24323C66.6223 8.60908 67.0992 8.13342 67.5842 7.81635C68.0686 7.49927 68.5242 7.27398 68.9503 7.14045C69.4347 6.97356 69.9122 6.89011 70.3822 6.89011C70.9694 6.9235 71.5127 7.03197 72.0121 7.21552C72.5266 7.39916 72.9671 7.61605 73.3344 7.8664C73.716 8.10003 74.0243 8.35039 74.2593 8.61741C74.4943 8.88443 74.634 9.11805 74.6779 9.31835C74.854 9.96917 74.8985 10.57 74.8101 11.1207C74.7224 11.6547 74.6046 12.1805 74.4579 12.6978C74.3257 13.1985 74.2079 13.6991 74.1051 14.1998C74.0174 14.7005 74.0538 15.2428 74.2154 15.8269C74.2743 15.9771 74.3326 16.1274 74.3915 16.2775C74.4504 16.411 74.5238 16.5446 74.6121 16.6781C74.6998 16.8116 74.8026 16.9201 74.9204 17.0035C74.7587 16.9868 74.5971 16.9785 74.4354 16.9785C74.2743 16.9617 74.1271 16.9451 73.9949 16.9284C73.8338 16.9117 73.6865 16.895 73.5543 16.8784C73.4077 16.8616 73.209 16.8533 72.9596 16.8533C72.5335 16.8533 71.873 16.8784 70.9769 16.9284C71.1091 16.5779 71.2119 16.2859 71.2852 16.0522C71.3736 15.8019 71.4469 15.6017 71.5058 15.4514C71.5641 15.2678 71.6086 15.126 71.638 15.0259C71.8141 14.5419 71.9169 13.9912 71.9463 13.3737C71.9902 12.7562 71.9538 12.1304 71.836 11.4962C71.7922 11.2793 71.7188 11.0206 71.6154 10.7202C71.5127 10.4198 71.3736 10.1277 71.1975 9.84399C71.0358 9.56031 70.8372 9.31835 70.6022 9.11805C70.3822 8.91782 70.1253 8.80097 69.8314 8.76758C69.5375 8.73425 69.2072 8.81764 68.84 9.01794C68.4872 9.21817 68.1056 9.58537 67.6945 10.1194C67.3856 10.57 67.1437 11.1207 66.9676 11.7716C66.8059 12.3223 66.6956 13.0149 66.6367 13.8493C66.5778 14.6671 66.6662 15.6266 66.9011 16.7281C66.6956 16.6947 66.5045 16.6781 66.3284 16.6781C66.1523 16.6614 66.005 16.6447 65.8878 16.628C65.7412 16.6113 65.609 16.5946 65.4912 16.5779C65.359 16.5779 65.2123 16.5696 65.0506 16.5529C64.904 16.5529 64.7204 16.5529 64.4998 16.5529C64.2792 16.5362 64.0223 16.5195 63.729 16.5028ZM82.3055 15.2261C82.7166 15.2261 83.0989 15.1761 83.451 15.0759C83.7449 14.9925 84.0238 14.859 84.2882 14.6754C84.5671 14.4752 84.7507 14.1831 84.8391 13.7992C85.133 13.866 85.3824 13.9244 85.5879 13.9745C85.7941 14.0079 85.9702 14.0413 86.1168 14.0747C86.2785 14.1247 86.4182 14.158 86.5354 14.1748C86.6532 14.2082 86.7923 14.2415 86.954 14.2749C87.1007 14.3083 87.2774 14.35 87.4829 14.4001C87.7029 14.4335 87.9604 14.4835 88.2537 14.5502C88.0337 14.5169 87.8056 14.5419 87.5706 14.6254C87.3507 14.7088 87.1376 14.8006 86.9321 14.9007C86.6971 15.0176 86.4765 15.1594 86.271 15.3263C86.1387 15.4264 85.9846 15.5766 85.8085 15.7769C85.6468 15.9771 85.4118 16.1691 85.1035 16.3527C84.7952 16.5362 84.3841 16.6947 83.8696 16.8282C83.3702 16.9451 82.7241 16.9868 81.9308 16.9534C80.9764 16.9201 80.1762 16.7281 79.5294 16.3776C78.8834 16.0105 78.362 15.5683 77.9653 15.051C77.5686 14.5169 77.2823 13.9411 77.1062 13.3237C76.9301 12.7062 76.8348 12.1304 76.8198 11.5964C76.8054 11.0623 76.9445 10.5032 77.2384 9.91911C77.5323 9.33501 77.9434 8.80097 78.4723 8.31699C79.0156 7.83301 79.6692 7.44081 80.4331 7.14045C81.197 6.82336 82.0342 6.66482 82.9447 6.66482C83.473 6.66482 83.958 6.73992 84.3985 6.89011C84.8541 7.02362 85.2652 7.20719 85.6324 7.44081C86.014 7.67451 86.3443 7.94153 86.6238 8.24187C86.9026 8.52562 87.1376 8.81764 87.3288 9.11805C87.5193 9.43513 87.6809 9.76894 87.8132 10.1194C87.931 10.4198 88.0262 10.7619 88.0995 11.1458C88.1729 11.5296 88.1954 11.9218 88.166 12.3223C87.0493 12.3557 86.1463 12.3808 85.4557 12.3974C84.7802 12.4141 84.2519 12.4224 83.8696 12.4224H82.8783H82.1294C81.865 12.4224 81.5197 12.4308 81.0942 12.4475C80.6681 12.4641 80.1467 12.4892 79.5294 12.5226C79.6034 13.1901 79.787 13.7074 80.0803 14.0747C80.3886 14.4251 80.7119 14.6921 81.0497 14.8757C81.432 15.0759 81.8506 15.1928 82.3055 15.2261ZM80.3228 10.7202C80.7928 10.7536 81.1819 10.7786 81.4902 10.7953C81.8136 10.812 82.078 10.8287 82.2836 10.8454C82.5042 10.862 82.6802 10.8704 82.8125 10.8704H83.3633C83.7305 10.8704 84.4129 10.8454 85.4118 10.7953C85.368 10.061 85.2282 9.50192 84.9932 9.11805C84.7733 8.73425 84.5383 8.4505 84.2882 8.26693C83.9943 8.0667 83.6716 7.94986 83.3188 7.91646C82.3644 7.93319 81.6519 8.15849 81.1819 8.59234C80.727 9.02627 80.4406 9.73554 80.3228 10.7202ZM89.9331 1.60812C90.212 1.84177 90.4915 2.017 90.7703 2.13382C91.0642 2.23396 91.3287 2.30071 91.5637 2.33409C91.8275 2.38416 92.0919 2.3925 92.3564 2.35912C92.6064 2.32575 92.8634 2.22561 93.1278 2.05873C93.3916 1.89184 93.7006 1.71661 94.0527 1.53303C94.4055 1.34945 94.8166 1.19091 95.2866 1.0574C95.771 0.907201 96.3513 0.832101 97.0268 0.832101C97.3207 0.832101 97.629 0.898856 97.9524 1.03237C98.2902 1.16588 98.6135 1.3411 98.9218 1.55806C99.2301 1.75833 99.509 1.98363 99.759 2.23396C100.023 2.48429 100.222 2.73462 100.354 2.98495C100.5 3.23528 100.603 3.64416 100.662 4.21157C100.721 4.7623 100.743 5.3631 100.728 6.01396C100.713 6.66482 100.662 7.30737 100.574 7.94153C100.5 8.57568 100.39 9.09306 100.243 9.49359C100.067 9.84399 99.7296 10.2946 99.2301 10.8454C98.804 11.3127 98.1655 11.9134 97.3132 12.6478C96.4616 13.382 95.3161 14.2582 93.8766 15.2762C94.7283 15.2595 95.4408 15.2345 96.0135 15.2011C96.6013 15.1511 97.0782 15.101 97.4454 15.051C97.8716 14.9842 98.2093 14.9174 98.4587 14.8507C98.6793 14.7505 98.9143 14.6087 99.1637 14.4251C99.3699 14.2582 99.5898 14.0413 99.8248 13.7742C100.075 13.5072 100.317 13.1567 100.552 12.7228C100.596 13.624 100.64 14.3333 100.684 14.8507C100.713 15.1511 100.735 15.4098 100.75 15.6266C100.765 15.8269 100.78 16.0606 100.794 16.3276C100.809 16.5612 100.816 16.8282 100.816 17.1287C100.831 17.4291 100.853 17.7461 100.883 18.08C100.148 17.863 99.4795 17.6961 98.8773 17.5792C98.2751 17.4457 97.7613 17.3539 97.3351 17.3039C96.8363 17.2372 96.3883 17.2038 95.9916 17.2038C95.5805 17.2204 95.1249 17.2622 94.6255 17.329C94.185 17.3957 93.6561 17.4958 93.0394 17.6293C92.4372 17.7461 91.7542 17.9214 90.9903 18.155C90.932 17.9714 90.8806 17.7879 90.8361 17.6043C90.7923 17.404 90.7553 17.2121 90.7265 17.0285C90.682 16.8282 90.6456 16.628 90.6162 16.4277C90.5867 16.2275 90.5573 16.0356 90.5278 15.852C90.4984 15.6851 90.4764 15.5099 90.462 15.3263C90.447 15.1427 90.4326 14.9675 90.4175 14.8006C91.5925 13.9495 92.5475 13.1818 93.282 12.4975C94.0164 11.7966 94.596 11.2042 95.0222 10.7202C95.5072 10.1527 95.8738 9.63543 96.1238 9.16811C96.3732 8.60075 96.5788 7.97485 96.7405 7.29064C96.9021 6.60641 96.9535 5.97224 96.8946 5.38813C96.8507 4.80402 96.6747 4.3284 96.3663 3.96124C96.0574 3.5774 95.5655 3.41051 94.8899 3.46058C94.4494 3.49396 94.0308 3.66919 93.6341 3.98628C93.2525 4.30336 92.8997 4.6872 92.577 5.1378C92.2536 5.5884 91.9672 6.07237 91.7178 6.58972C91.4678 7.09038 91.2547 7.56599 91.0787 8.01658C90.917 8.46723 90.7848 8.8427 90.682 9.14312C90.5942 9.44353 90.5497 9.60203 90.5497 9.6187C90.5353 9.65209 90.5134 9.52691 90.4839 9.24323C90.4689 8.95955 90.447 8.60908 90.4175 8.19181C90.4031 7.75796 90.3812 7.30737 90.3517 6.84005C90.3223 6.37277 90.2928 5.98058 90.2634 5.6635C90.249 5.41316 90.227 5.08773 90.1976 4.6872C90.1537 4.03634 90.0653 3.00998 89.9331 1.60812ZM102.98 3.73594C103.495 3.55237 103.913 3.40216 104.236 3.28535C104.559 3.15184 104.824 3.04336 105.029 2.95992C105.264 2.85979 105.44 2.768 105.558 2.68455L106.086 2.38416C106.292 2.26734 106.556 2.11714 106.88 1.93356C107.203 1.73329 107.622 1.48296 108.135 1.18257C108.018 1.81674 107.93 2.41753 107.871 2.98495C107.827 3.53568 107.79 4.028 107.761 4.46191C107.717 4.96257 107.695 5.42151 107.695 5.83873C107.68 6.18919 107.658 6.65648 107.629 7.24058C107.614 7.82468 107.592 8.45883 107.563 9.14312C107.533 9.82733 107.504 10.5283 107.474 11.2459C107.445 11.9635 107.423 12.6394 107.409 13.2736C107.409 13.891 107.415 14.4251 107.431 14.8757C107.46 15.3263 107.511 15.635 107.585 15.8019C107.658 16.0022 107.753 16.1941 107.871 16.3776C107.974 16.5446 108.092 16.7365 108.223 16.9534C108.37 17.1537 108.547 17.3539 108.752 17.5542C108.414 17.6377 108.099 17.7127 107.805 17.7795C107.511 17.8296 107.254 17.8713 107.034 17.9047C106.769 17.9548 106.534 17.9965 106.329 18.0298C106.108 18.0466 105.807 18.0883 105.426 18.155C105.103 18.2051 104.691 18.2719 104.192 18.3553C103.693 18.422 103.076 18.4971 102.341 18.5806C102.723 18.3136 103.025 18.0549 103.244 17.8045C103.479 17.5542 103.656 17.3373 103.773 17.1537C103.906 16.9368 103.986 16.7281 104.016 16.5279C104.03 16.3944 104.052 16.0356 104.082 15.4514C104.126 14.8507 104.163 14.1497 104.192 13.3486C104.236 12.5309 104.273 11.6631 104.302 10.7452C104.346 9.81067 104.376 8.94282 104.39 8.14176C104.405 7.3407 104.412 6.65648 104.412 6.08906C104.412 5.52164 104.39 5.17952 104.346 5.0627C104.287 4.94588 104.199 4.81237 104.082 4.66217C103.979 4.52866 103.839 4.38681 103.663 4.23661C103.501 4.08641 103.274 3.91952 102.98 3.73594Z" fill="#394BA7"/>
</svg>
