<svg width="105" height="40" viewBox="0 0 105 40" fill="none" xmlns="http://www.w3.org/2000/svg">
<path d="M8.53487 38.903C11.7693 38.903 14.8229 37.2886 17.1332 35.6741C18.4591 34.7256 19.7046 33.656 20.8899 32.4251L18.2984 29.7208C16.2091 31.7591 12.0707 34.6247 8.85631 34.6247C7.83173 34.6247 7.14869 34.2615 6.32502 32.7883C11.0059 31.4967 14.4613 27.9248 14.4613 24.595C14.4613 21.5477 12.1711 19.5498 9.17774 19.5498C3.6732 19.5498 0.981201 25.9269 0.981201 30.4877C0.981201 34.9476 3.49239 38.903 8.53487 38.903ZM5.86296 29.4182C5.86296 27.622 6.18439 23.4043 9.6197 23.4043C10.2626 23.4043 10.7648 24.2721 10.7648 25.483C10.7648 27.1781 7.77147 29.4182 5.86296 29.4182ZM24.1913 22.4356C27.928 17.8748 32.1468 11.9013 32.1468 6.79567C32.1468 3.14298 31.524 0.15625 27.4458 0.15625C22.0015 0.15625 18.8073 14.6661 17.5215 22.5769C16.8787 26.5323 16.5372 29.7813 16.3162 32.1425C16.1957 33.5148 16.1153 34.7458 16.0752 35.8356C17.0395 36.4208 18.0439 36.9253 19.1087 37.3693C20.9368 38.1563 23.2672 38.903 25.5373 38.903H26.0396C26.5418 38.7012 27.024 38.4994 27.4659 38.2774C28.2494 37.894 29.1133 37.4299 29.5754 36.9657C33.3521 36.0979 36.1446 34.9073 39.0977 32.2233L37.5508 28.8934C35.4214 31.0326 33.4526 31.9407 31.504 33.091C33.091 30.629 33.4326 28.5302 33.4326 25.8058C33.4326 22.5366 31.5642 19.5296 28.4302 19.5296C27.2047 19.5296 26.0195 20.7808 24.5128 22.6576L24.1913 22.4356ZM26.3208 24.1309C28.4302 24.1309 28.9325 25.3215 28.9325 26.6534C28.9325 29.741 27.7673 35.0283 24.9949 35.0283C24.2114 35.0283 23.3275 34.8669 22.544 34.7055C22.102 34.6045 21.6601 34.5036 21.2181 34.3624C21.2582 33.8982 21.2984 33.3937 21.3587 32.8489C21.4591 31.9004 21.6199 30.6693 21.861 29.2163C22.4435 25.6242 24.4525 24.1309 26.3208 24.1309ZM28.2896 5.64538C27.8878 11.3766 24.0507 16.6035 21.861 20.8413C22.5038 17.2896 25.0552 4.03093 27.265 4.03093C28.169 4.03093 28.2896 5.42339 28.2896 5.64538ZM37.5575 33.0102C37.7183 35.5732 37.7584 39.125 40.8723 39.125C42.7406 39.125 45.2518 35.2503 46.8188 32.0013C46.8791 34.0193 48.6068 35.9769 51.4796 35.9769C53.1872 35.9769 55.156 35.2503 56.9239 34.1202V29.3778C56.3413 29.7612 55.7788 30.1245 55.2363 30.4271C54.2922 30.9721 53.1471 31.4564 52.3434 31.4564C50.1738 31.4564 49.6314 30.1446 49.6314 28.8531C49.6314 28.2275 49.7318 27.6423 49.8724 27.1781C49.9328 26.9157 50.0131 26.6736 50.1135 26.4314C51.2988 23.7877 52.1426 22.698 52.1426 21.2248C52.1426 20.2359 51.118 19.5296 49.5711 19.5296C48.4059 19.5296 47.4014 20.2158 47.2407 20.9625L41.9572 33.6157L41.6759 33.6359L42.4594 20.8616C42.4394 20.1553 41.917 19.5296 41.013 19.5296C40.8723 19.5296 40.7718 19.5498 40.6313 19.57L38.2205 19.9534C37.3567 20.0947 37.196 21.689 37.196 24.4537C37.196 26.5928 37.3567 28.3284 37.5174 32.3645L37.5575 33.0102ZM67.116 35.0485C67.116 32.9497 65.9507 31.7793 63.7209 31.7793C61.1293 31.7793 60.0444 33.6763 60.0444 35.6337C60.0444 37.9344 61.3704 38.903 63.3392 38.903C67.0557 38.903 67.116 35.3916 67.116 35.0485ZM82.9733 30.5079C81.2054 31.9609 78.192 35.0283 76.2835 35.0283C75.4598 35.0283 75.2589 34.2615 75.2589 33.0506C75.2589 29.3172 77.9509 22.476 77.9509 20.6799C77.9509 19.9736 77.6295 19.5296 76.5045 19.5296C75.2991 19.5296 73.2299 20.0947 72.8482 21.4871C71.8839 25.5232 70.116 31.4362 70.116 34.8468C70.116 37.2886 71.0602 38.903 73.8527 38.903C76.9465 38.903 81.0447 36.3804 82.9733 34.6045V30.5079ZM73.9933 13.8589C73.9933 15.7155 75.0982 16.9264 77.4487 16.9264C80.1809 16.9264 81.3461 15.1302 81.3461 13.314C81.3461 11.2959 79.7992 10.4887 77.9308 10.4887C74.9576 10.4887 73.9933 12.6279 73.9933 13.8589ZM90.8355 23.6464C90.9152 23.5658 90.8955 29.3576 91.1363 30.4474C90.8355 31.2344 90.4935 31.9205 90.112 32.5461C89.4692 33.6157 88.5451 34.6449 87.5808 34.6449C85.7122 34.6449 85.3305 33.4543 85.3305 32.3847C85.3305 29.6805 87.2791 25.382 90.8355 23.6464ZM104.054 30.2859C103.25 30.9721 102.487 31.5775 101.744 32.1223C100.438 33.0506 98.951 33.9588 97.9464 33.9588C96.8818 33.9588 96.5407 32.5461 96.5407 31.0124C96.5407 29.8016 96.8818 28.2477 97.1432 27.5211C99.9359 20.7404 103.25 15.1706 103.953 7.54235C103.994 7.03784 104.013 6.55351 104.013 6.08935C104.013 3.00172 103.089 0.15625 100.558 0.15625C95.4555 0.15625 90.9958 10.2869 90.7549 20.6396C84.6475 21.2046 80.509 27.0974 80.509 32.2434C80.509 35.6136 82.1563 38.903 85.6118 38.903C88.0626 38.903 90.574 37.2482 92.5626 35.3109C93.8484 38.4388 96.299 38.8829 97.043 38.8829C98.369 38.8829 100.277 37.894 101.844 36.9253C102.768 36.34 103.712 35.6943 104.656 34.9476L104.054 30.2859ZM100.277 9.01557C100.016 11.861 98.8507 15.4935 97.7655 18.4802C97.1227 20.2158 96.4198 21.9513 95.6561 23.7071V23.5052C95.6561 22.698 95.6561 20.3974 95.8772 17.7336C96.0384 15.776 97.0833 4.83815 99.6547 4.83815C100.136 4.83815 100.398 5.32249 100.398 6.77549C100.398 7.32036 100.358 8.06705 100.277 9.01557Z" fill="black"/>
</svg>
