<svg width="109" height="35" viewBox="0 0 109 35" fill="none" xmlns="http://www.w3.org/2000/svg">
<path d="M5.79312 2.83321C5.79312 3.68146 5.77677 4.67652 5.74406 5.8184C5.71135 6.92765 5.67863 7.7759 5.64592 8.36315C5.54779 10.027 5.49872 11.6909 5.49872 13.3548C5.49872 14.5945 5.54779 15.8832 5.64592 17.2208C6.65997 15.7527 7.7558 14.6761 8.9334 13.991C10.111 13.3058 11.5339 12.9633 13.2022 12.9633C14.4125 12.9633 15.5411 13.5016 16.5878 14.5782C17.6346 15.6548 18.3052 16.9109 18.5996 18.3464C18.6977 19.6188 18.7468 21.1685 18.7468 22.9955C18.7468 24.17 18.8122 25.7033 18.943 27.5956C19.0085 28.3133 19.1884 28.9822 19.4828 29.602C19.8099 30.2219 20.2679 30.5318 20.8567 30.5318C21.1511 30.5318 21.38 30.5155 21.5436 30.4829C21.7399 30.4503 21.9198 30.434 22.0833 30.434C22.5413 30.434 22.852 30.5482 23.0156 30.7765C23.2119 31.0049 23.31 31.3312 23.31 31.7553C23.31 32.5383 22.9175 33.1255 22.1324 33.517C21.3473 33.9085 20.6277 34.1043 19.9734 34.1043C17.6182 34.1043 15.999 33.1255 15.1158 31.168C14.6252 30.0588 14.3144 28.6233 14.1836 26.8615C14.0527 25.0671 13.9873 22.9792 13.9873 20.5975C13.9873 18.2485 13.1859 17.074 11.583 17.074C10.6998 17.074 9.80025 17.5471 8.88434 18.4932C8.00113 19.4067 7.26513 20.6301 6.67633 22.1635C6.08752 23.6643 5.79312 25.2303 5.79312 26.8615L5.84219 31.951C5.84219 32.6688 5.56415 33.2071 5.00805 33.566C4.45196 33.8922 3.92858 34.0553 3.43791 34.0553C2.71827 34.0553 2.06404 33.8433 1.47524 33.4192C0.886437 32.9624 0.592036 32.4567 0.592036 31.9021C0.821014 29.4552 0.935504 25.3608 0.935504 19.6188C0.935504 18.5748 0.853726 14.7087 0.690169 8.02059L0.542969 3.51834C0.542969 2.80059 0.870081 2.18071 1.52431 1.65871C2.17853 1.10408 2.91453 0.826772 3.73232 0.826772C4.45196 0.826772 4.97534 0.989896 5.30245 1.31615C5.62957 1.6424 5.79312 2.14808 5.79312 2.83321ZM29.4421 2.44171C30.587 2.53958 31.5847 2.84952 32.4352 3.37152C33.2857 3.8609 33.7109 4.61127 33.7109 5.62265C33.7109 6.37302 33.3511 6.97658 32.6315 7.43334C31.9445 7.85746 31.1104 8.06952 30.1291 8.06952C29.1804 8.06952 28.5262 7.82484 28.1664 7.33546C27.8066 6.84609 27.6267 6.3404 27.6267 5.8184C27.6267 4.83965 27.7248 4.02402 27.9211 3.37152C28.15 2.71902 28.6571 2.40908 29.4421 2.44171ZM33.3675 24.121V25.5402C33.3675 26.8126 33.4002 28.0197 33.4656 29.1616C33.5637 30.2708 33.6782 31.3964 33.8091 32.5383C33.7764 32.8645 33.531 33.2071 33.0731 33.566C32.6151 33.8922 32.2062 34.0553 31.8464 34.0553C31.2249 34.0553 30.587 33.9412 29.9328 33.7128C29.3113 33.4518 28.9351 33.1418 28.8043 32.783C28.608 31.739 28.5099 30.8092 28.5099 29.9935C28.5099 27.3183 28.4281 24.3168 28.2645 20.989C28.1337 18.0528 28.0683 15.9974 28.0683 14.8229C28.0683 14.2356 28.3627 13.73 28.9515 13.3058C29.5403 12.8817 30.1618 12.6696 30.816 12.6696C31.7646 12.6696 32.4189 12.8817 32.7787 13.3058C33.1712 13.73 33.3675 14.3988 33.3675 15.3123V24.121ZM50.2831 5.0354C49.3018 5.0354 48.6967 5.85102 48.4677 7.48227C48.2387 9.70077 48.1242 11.381 48.1242 12.5228C48.7784 12.5881 49.4654 12.6207 50.185 12.6207C50.643 12.6207 51.2318 12.5881 51.9514 12.5228L53.2272 12.4739C53.8814 12.4739 54.3721 12.5881 54.6992 12.8165C55.0263 13.0448 55.1898 13.42 55.1898 13.942C55.1898 14.6598 54.9445 15.2796 54.4538 15.8016C53.9959 16.291 53.4561 16.5357 52.8346 16.5357C50.4794 16.5357 48.8929 16.6499 48.0751 16.8783C48.0751 18.8684 48.1733 21.6905 48.3695 25.3445L48.4677 27.7424L48.6639 31.5595C48.7294 32.5057 48.6312 33.1745 48.3695 33.566C48.1406 33.9248 47.6335 34.1043 46.8485 34.1043C45.4092 34.1043 44.4769 33.2397 44.0517 31.5106C43.79 30.2382 43.5773 28.4601 43.4138 26.1764C43.2502 23.8926 43.1684 21.8536 43.1684 20.0592C43.1684 19.1131 43.2175 18.0365 43.3156 16.8293C43.2502 16.7967 43.0703 16.7804 42.7759 16.7804C42.4815 16.7804 42.2689 16.7967 42.138 16.8293C41.1567 16.8946 40.4371 16.9272 39.9791 16.9272C39.6847 16.9272 39.3903 16.7315 39.0959 16.34C38.8015 15.9158 38.6543 15.4101 38.6543 14.8229C38.6543 14.4966 38.7688 14.203 38.9978 13.942C39.2267 13.6484 39.5048 13.4363 39.8319 13.3058C40.3226 13.0448 41.0259 12.9143 41.9418 12.9143L43.4138 12.9633C43.4138 8.33052 43.9372 5.11696 44.9839 3.32258C45.9653 1.62608 47.5845 0.777832 49.8415 0.777832C51.15 0.777832 52.344 1.10408 53.4234 1.75658C53.8814 2.05021 54.2248 2.40909 54.4538 2.83321C54.7155 3.25734 54.8464 3.66515 54.8464 4.05665C54.8464 4.54602 54.6501 5.05171 54.2576 5.57371C53.8977 6.09571 53.3416 6.35671 52.5893 6.35671C52.2949 6.35671 51.9187 6.12833 51.4608 5.67159C51.2972 5.50846 51.1173 5.36165 50.921 5.23115C50.7247 5.10065 50.5121 5.0354 50.2831 5.0354ZM64.8482 26.2743C64.8482 27.514 65.0281 28.4765 65.388 29.1616C65.7805 29.8141 66.2712 30.1403 66.86 30.1403C67.1871 30.1403 67.4978 30.124 67.7923 30.0914C68.0866 30.0262 68.3811 29.9935 68.6755 29.9935C69.0026 29.9935 69.2806 30.1567 69.5096 30.4829C69.7713 30.8092 69.9021 31.168 69.9021 31.5595C69.9021 32.3425 69.5259 32.9624 68.7736 33.4192C68.0539 33.8433 67.0726 34.0553 65.8296 34.0553C64.9464 34.0553 64.0468 33.7943 63.1309 33.2723C62.2477 32.7177 61.5117 31.8695 60.9229 30.7276C60.3341 29.5531 60.0397 28.1013 60.0397 26.3722C60.0397 22.6529 60.1051 19.5046 60.236 16.9272C60.3995 13.8605 60.4813 9.9944 60.4813 5.32902C60.4813 3.8609 60.5631 2.83321 60.7266 2.24596C60.9229 1.78921 61.2336 1.44665 61.6589 1.21827C62.1168 0.957271 62.5912 0.826772 63.0818 0.826772C63.5725 0.826772 63.9977 0.908335 64.3576 1.07146C64.7501 1.23458 65.0118 1.49558 65.1426 1.85446C65.2735 2.24596 65.3553 2.63746 65.388 3.02896C65.4534 3.38783 65.4861 3.90984 65.4861 4.59496C65.4861 5.93259 65.437 7.22127 65.3389 8.46102C65.2735 9.96177 65.2408 11.0547 65.2408 11.7398C64.9791 17.4818 64.8482 22.3266 64.8482 26.2743ZM76.4327 2.44171C77.5775 2.53958 78.5752 2.84952 79.4257 3.37152C80.2762 3.8609 80.7015 4.61127 80.7015 5.62265C80.7015 6.37302 80.3416 6.97658 79.622 7.43334C78.9351 7.85746 78.1009 8.06952 77.1196 8.06952C76.171 8.06952 75.5167 7.82484 75.1569 7.33546C74.7971 6.84609 74.6172 6.3404 74.6172 5.8184C74.6172 4.83965 74.7153 4.02402 74.9116 3.37152C75.1406 2.71902 75.6476 2.40908 76.4327 2.44171ZM80.358 24.121V25.5402C80.358 26.8126 80.3907 28.0197 80.4561 29.1616C80.5543 30.2708 80.6688 31.3964 80.7996 32.5383C80.7996 32.9298 80.5706 33.2887 80.1127 33.6149C79.6547 33.9085 79.2295 34.0553 78.8369 34.0553C78.2154 34.0553 77.5775 33.9412 76.9233 33.7128C76.3018 33.4518 75.9256 33.1418 75.7948 32.783C75.5985 31.739 75.5004 30.8092 75.5004 29.9935C75.5004 27.3183 75.4186 24.3168 75.255 20.989C75.1242 18.0528 75.0588 15.9974 75.0588 14.8229C75.0588 14.2356 75.3532 13.73 75.942 13.3058C76.5308 12.8817 77.1523 12.6696 77.8065 12.6696C78.7551 12.6696 79.4094 12.8817 79.7692 13.3058C80.1617 13.73 80.358 14.3988 80.358 15.3123V24.121ZM103.75 12.2781C104.405 12.2781 104.912 12.4413 105.272 12.7675C105.664 13.0611 105.86 13.4363 105.86 13.8931C105.86 14.2193 105.795 14.5619 105.664 14.9208C105.566 15.247 105.451 15.5896 105.321 15.9485C104.568 17.7102 102.982 20.1734 100.561 23.338C103.047 26.5353 105.059 28.5906 106.596 29.5042C106.727 29.5694 106.973 29.6836 107.332 29.8467C107.692 30.0098 107.97 30.2056 108.167 30.434C108.395 30.6623 108.51 30.9233 108.51 31.217C108.51 31.9347 108.232 32.522 107.676 32.9787C107.152 33.4028 106.515 33.6149 105.762 33.6149C104.486 33.6149 103.096 32.9135 101.592 31.5106C100.087 30.0751 98.8111 28.5743 97.7643 27.0083C97.012 28.1502 96.1451 29.2921 95.1638 30.434C94.2152 31.5432 93.332 32.4893 92.5142 33.2723C92.1871 33.6312 91.7945 33.9085 91.3366 34.1043C90.9113 34.3 90.4861 34.3979 90.0608 34.3979C89.472 34.3979 88.9486 34.2674 88.4907 34.0064C88.0327 33.7454 87.8038 33.2887 87.8038 32.6362C87.8038 32.473 87.9182 32.212 88.1472 31.8532C88.3762 31.4617 88.507 31.2333 88.5398 31.168C88.9323 30.4829 89.4557 29.7815 90.1099 29.0637C90.7641 28.3133 91.173 27.8403 91.3366 27.6445C91.7291 27.1551 92.1544 26.6821 92.6123 26.2253C92.874 25.9317 93.2665 25.475 93.7899 24.8551C94.3133 24.2352 94.6731 23.7458 94.8694 23.387L93.152 21.038C92.3343 20.0918 91.631 19.3415 91.0422 18.7868C90.4534 18.1996 89.9791 17.906 89.6192 17.906C89.0959 17.906 88.6052 18.0528 88.1472 18.3464C87.7547 18.6074 87.3622 18.7379 86.9696 18.7379C86.5444 18.7379 86.2173 18.64 85.9883 18.4443C85.7593 18.2159 85.6448 17.9712 85.6448 17.7102C85.6448 16.601 86.0864 15.6548 86.9696 14.8718C87.8528 14.0562 88.965 13.6484 90.3062 13.6484C91.5819 13.6484 92.7104 14.0888 93.6918 14.9697C94.7058 15.818 95.7035 16.9598 96.6849 18.3953C96.8157 18.5258 96.9629 18.7379 97.1265 19.0315C97.29 19.3251 97.4536 19.5698 97.6171 19.7656C97.977 19.2436 98.6312 18.2322 99.5798 16.7315C100.594 14.9371 101.199 13.9094 101.395 13.6484C102.082 12.7349 102.867 12.2781 103.75 12.2781Z" fill="#D00707"/>
</svg>
